<svg width="209" height="51" viewBox="0 0 209 51" fill="none" xmlns="http://www.w3.org/2000/svg">
<g clip-path="url(#clip0)">
<path d="M90.4376 9.91899C91.0477 9.34557 91.814 9.04297 92.753 9.04297C93.6921 9.04297 94.4584 9.32885 95.0685 9.91899C95.6786 10.5075 95.9763 11.2247 95.9763 12.1007C95.9763 12.9918 95.6786 13.7407 95.0849 14.3142C94.4896 14.8876 93.7085 15.1902 92.753 15.1902C91.7976 15.1902 91.0164 14.9043 90.4211 14.3142C89.8258 13.7407 89.5298 12.9934 89.5298 12.1007C89.515 11.2247 89.8275 10.4924 90.4376 9.91899ZM90.0314 18.2128H95.478V37.2045H90.0314V18.2128Z" fill="#6204AC"/>
<path d="M99.6265 18.2145L104.29 17.9754L104.996 20.7774C105.075 20.6971 105.183 20.5868 105.308 20.443C105.433 20.2992 105.716 20.0451 106.137 19.694C106.56 19.343 107.014 19.0253 107.499 18.7712C107.984 18.5004 108.579 18.2613 109.283 18.039C109.989 17.8166 110.724 17.7046 111.442 17.7046C115.667 17.7046 117.78 20.3795 117.78 25.7276V37.2062H112.335V26.4916C112.335 23.8017 111.317 22.4642 109.299 22.4642C108.704 22.4642 108.094 22.6397 107.469 23.0059C106.843 23.357 106.374 23.7064 106.076 24.0558L105.575 24.5657V37.2212H100.13V23.5776L99.6265 18.2145Z" fill="#6204AC"/>
<path d="M82.0419 14.5732L71.7193 23.3635C70.3626 24.5388 70.703 26.9244 72.0696 28.078L82.0484 36.3066C82.5714 36.748 83.2654 36.1678 83.2654 35.3002V15.5729C83.267 14.6986 82.5648 14.1201 82.0419 14.5732Z" fill="#6204AC"/>
<path d="M81.6857 39.5717L66.2586 27.6685L62.0652 30.9803C61.6343 31.3481 61.0456 31.5805 60.539 31.6106C60.026 31.6407 59.5079 31.4969 59.059 31.1692L54.4922 27.8423L29.4102 47.1517C27.4401 48.668 28.3857 51.3579 30.7275 50.96L81.0789 42.3987C82.1511 42.2182 82.5672 40.2555 81.6857 39.5717Z" fill="#6204AC"/>
<path d="M81.157 8.63825L72.6632 7.19382C71.5202 6.99989 70.3477 7.29747 69.4284 8.01634L61.1829 14.4645C60.7619 14.7938 60.1731 14.7955 59.7522 14.4645L45.0766 3.00762C44.5339 2.58466 43.8975 2.30212 43.2216 2.18844L30.5688 0.040174C28.2352 -0.356043 27.2781 2.30881 29.2268 3.83517L59.0664 27.2371C59.9594 27.9375 61.122 27.9325 61.9887 27.2404L64.5821 25.1707C64.6725 25.0871 64.7662 25.0119 64.8649 24.945L81.7721 11.4569C82.642 10.7631 82.2227 8.81881 81.157 8.63825Z" fill="#6204AC"/>
<path d="M119.426 18.2129H125.577L129.504 28.3373L130.004 29.8821H130.083L130.505 28.3373L134.48 18.2129H140.16L131.834 37.2046H127.828L119.426 18.2129Z" fill="#04A0C7"/>
<path d="M142.776 9.91899C143.386 9.34557 144.154 9.04297 145.091 9.04297C146.03 9.04297 146.798 9.32885 147.407 9.91899C148.017 10.5075 148.315 11.2247 148.315 12.1007C148.315 12.9918 148.019 13.7407 147.423 14.3142C146.828 14.8876 146.045 15.1902 145.091 15.1902C144.138 15.1902 143.355 14.9043 142.76 14.3142C142.164 13.7407 141.867 12.9934 141.867 12.1007C141.853 11.2247 142.166 10.4924 142.776 9.91899ZM142.37 18.2128H147.815V37.2045H142.37V18.2128Z" fill="#04A0C7"/>
<path d="M164.479 8.05469H169.924V33.3825L170.633 37.1775L166.418 37.4433L165.558 35.708C163.946 37.0454 162.147 37.7292 160.159 37.7292C157.796 37.7292 155.747 36.8849 154.008 35.1981C152.27 33.5112 151.41 30.9952 151.41 27.6365C151.41 26.1085 151.645 24.7393 152.083 23.5289C152.537 22.3185 153.101 21.3472 153.773 20.6467C154.446 19.9295 155.229 19.341 156.105 18.8796C156.982 18.4182 157.811 18.1156 158.593 17.9568C159.376 17.798 160.142 17.7177 160.894 17.7177C161.489 17.7177 162.678 17.8297 164.477 18.0688V8.05469H164.479ZM164.479 31.0754V22.5258C163.494 22.1597 162.538 21.9691 161.599 21.9691C160.427 21.9691 159.394 22.3987 158.47 23.2748C157.546 24.1508 157.092 25.4715 157.092 27.2236C157.092 29.0709 157.483 30.4719 158.266 31.4098C159.049 32.3644 159.957 32.8258 160.989 32.8258C161.614 32.8258 162.21 32.682 162.788 32.3961C163.367 32.1102 163.806 31.8077 164.088 31.4883L164.479 31.0754Z" fill="#04A0C7"/>
<path d="M173.982 18.2129H189.006L189.474 21.8273L180.476 32.6372H189.379V37.1895H173.934L173.261 33.3527L182.181 22.7652H173.982V18.2129Z" fill="#04A0C7"/>
<path d="M195.094 23.564L193.466 19.8393C193.622 19.6487 193.951 19.4247 194.453 19.1221C194.953 18.8362 195.767 18.5169 196.862 18.1992C197.957 17.8649 199.115 17.7061 200.337 17.7061C202.981 17.7061 205.001 18.4383 206.408 19.9195C207.818 21.4007 208.507 23.4855 208.507 26.2072V32.336L208.976 37.2076L204.312 37.4785L203.687 35.4255C202.184 36.9535 200.274 37.7175 197.974 37.7175C196.206 37.7175 194.688 37.2243 193.404 36.2363C192.121 35.2499 191.478 33.849 191.478 32.0184C191.478 27.767 195.344 25.6505 203.059 25.6505C203.059 23.2314 201.886 22.0043 199.553 22.0043C198.928 22.0043 198.253 22.1313 197.518 22.3871C196.782 22.6412 196.219 22.8652 195.844 23.0709C195.469 23.2932 195.219 23.4537 195.094 23.564ZM203.059 31.7475V28.8971C199.115 28.8971 197.143 29.7882 197.143 31.587C197.143 32.224 197.379 32.7021 197.832 33.0515C198.286 33.4026 198.849 33.5614 199.521 33.5614C200.901 33.5614 202.074 32.9562 203.059 31.7475Z" fill="#04A0C7"/>
<path d="M45.8331 22.5494L18.9372 1.15871C17.416 0.0921039 15.3423 1.19717 15.3423 3.07627V9.50937C15.3423 10.8017 14.3112 11.8499 13.04 11.8499H11.5846C10.1227 11.8499 8.92545 13.067 8.92545 14.5532C8.92545 16.0394 10.1227 17.2565 11.5846 17.2565H12.124H21.251C22.7327 17.2565 24.0006 18.4886 23.9809 19.9966C23.9612 21.4661 22.7722 22.6631 21.3217 22.6631H15.3423H12.124H2.7306C1.2489 22.6631 -0.0190185 23.8952 0.000715595 25.4032C0.0204497 26.8727 1.20943 28.0697 2.65988 28.0697H15.3423V28.0764C16.7434 28.1483 17.8683 29.3319 17.8683 30.773C17.8683 32.2141 16.7434 33.3978 15.3423 33.4696V33.4763H15.2108H8.77087C7.32041 33.4763 6.13143 34.6733 6.1117 36.1429C6.09197 37.6491 7.35988 38.8829 8.84158 38.8829H13.0384C14.3096 38.8829 15.3407 39.9312 15.3407 41.2235V47.8455C15.3407 49.7112 17.3914 50.8213 18.9142 49.7781L45.7969 28.9708C48.0302 27.4378 48.0483 24.1042 45.8331 22.5494Z" fill="#04A0C7"/>
</g>
<defs>
<clipPath id="clip0">
<rect width="208.976" height="51" fill="white"/>
</clipPath>
</defs>
</svg>
